<?xml version="1.0" encoding="UTF-8"?> <svg xmlns="http://www.w3.org/2000/svg" width="111" height="53" viewBox="0 0 111 53" fill="none"><path d="M1.72266 47.1187V52.8208H4.65075V51.8528H2.82855V50.31H4.58373V49.3378H2.82855V48.0866H4.65075V47.1187H1.72266Z" fill="#0C538E"></path><path d="M9.00689 48.3698C8.79744 48.0824 8.52515 47.9007 8.16071 47.9007C7.79627 47.9007 7.46953 48.1712 7.46953 48.5431C7.46953 49.5027 9.71063 49.1053 9.71063 51.0159C9.71063 52.1572 9.00688 52.9687 7.85073 52.9687C7.07158 52.9687 6.50188 52.5164 6.1123 51.857L6.82443 51.1554C6.97523 51.595 7.37319 51.9881 7.84654 51.9881C8.31989 51.9881 8.57542 51.6034 8.57542 51.1638C8.57542 50.5721 8.03504 50.4072 7.59101 50.2339C6.86213 49.9338 6.33013 49.5618 6.33013 48.6742C6.33013 47.7274 7.0255 46.9623 7.98058 46.9623C8.48326 46.9623 9.17863 47.2117 9.52632 47.6005L9.01107 48.3698H9.00689Z" fill="#0C538E"></path><path d="M13.9375 48.3698C13.7281 48.0824 13.4558 47.9007 13.0914 47.9007C12.7269 47.9007 12.4002 48.1712 12.4002 48.5431C12.4002 49.5027 14.6413 49.1053 14.6413 51.0159C14.6413 52.1572 13.9375 52.9687 12.7814 52.9687C12.0022 52.9687 11.4325 52.5164 11.043 51.857L11.7551 51.1554C11.9059 51.595 12.3038 51.9881 12.7772 51.9881C13.2506 51.9881 13.5061 51.6034 13.5061 51.1638C13.5061 50.5721 12.9657 50.4072 12.5217 50.2339C11.7928 49.9338 11.2608 49.5618 11.2608 48.6742C11.2608 47.7274 11.9562 46.9623 12.9112 46.9623C13.4139 46.9623 14.1135 47.2117 14.457 47.6005L13.9417 48.3698H13.9375Z" fill="#0C538E"></path><path d="M16.2295 47.1188V52.8209H19.1534V51.8529H17.3312V50.3101H19.0864V49.3379H17.3312V48.0867H19.1534V47.1188H16.2295Z" fill="#0C538E"></path><path d="M20.9121 46.9664V52.8207H22.0138V48.9446H22.0306L25.0047 52.9348H25.8006V47.1186H24.6989V50.9524H24.6822L21.708 46.9664H20.9121Z" fill="#0C538E"></path><path d="M27.2168 47.1187V48.0866H28.3562V52.8208H29.4579V48.0866H30.5973V47.1187H27.2168Z" fill="#0C538E"></path><path d="M33.1105 47.1187H32.0088V52.8208H33.1105V47.1187Z" fill="#0C538E"></path><path d="M37.048 48.6361H37.0648L37.7685 50.7072H36.4281L37.048 48.6361ZM36.6878 46.9664L34.4844 52.8207H35.6447L36.1097 51.6203H38.0743L38.51 52.8207H39.6871L37.5423 46.9664H36.6878Z" fill="#0C538E"></path><path d="M41.0654 47.1187V52.8208H43.7254V51.8528H42.1671V47.1187H41.0654Z" fill="#0C538E"></path><path d="M50.9678 48.3698C50.7584 48.0824 50.4861 47.9007 50.1216 47.9007C49.7572 47.9007 49.4305 48.1712 49.4305 48.5431C49.4305 49.5027 51.6716 49.1053 51.6716 51.0159C51.6716 52.1572 50.9678 52.9687 49.8117 52.9687C49.0325 52.9687 48.4628 52.5164 48.0732 51.857L48.7854 51.1554C48.9362 51.595 49.3341 51.9881 49.8075 51.9881C50.2808 51.9881 50.5363 51.6034 50.5363 51.1638C50.5363 50.5721 49.996 50.4072 49.5519 50.2339C48.8231 49.9338 48.2911 49.5618 48.2911 48.6742C48.2911 47.7274 48.9864 46.9623 49.9415 46.9623C50.4442 46.9623 51.1396 47.2117 51.4873 47.6005L50.972 48.3698H50.9678Z" fill="#0C538E"></path><path d="M55.7982 48.0612C54.7552 48.0612 54.1436 48.9911 54.1436 49.9126C54.1436 50.8341 54.5792 51.8739 55.7982 51.8739C57.0172 51.8739 57.4571 50.7918 57.4571 49.9126C57.4571 48.9911 56.8413 48.0612 55.7982 48.0612ZM55.7982 52.9729C54.0724 52.9729 53 51.6414 53 49.9633C53 48.2852 54.1101 46.9664 55.7982 46.9664C57.4864 46.9664 58.5965 48.2683 58.5965 49.9633C58.5965 51.6583 57.5241 52.9729 55.7982 52.9729Z" fill="#0C538E"></path><path d="M60.2012 47.1188V52.8209H61.3029V50.3101H62.8989V49.3379H61.3029V48.0867H63.0036V47.1188H60.2012Z" fill="#0C538E"></path><path d="M64.3438 47.1187V48.0866H65.4832V52.8208H66.5848V48.0866H67.7242V47.1187H64.3438Z" fill="#0C538E"></path><path d="M72.2777 47.0427L71.1509 51.0076H71.1383L69.9947 47.1146H68.8428L70.6398 52.935H71.4525L72.5165 49.2027H72.5291L73.6559 52.935H74.4644L76.3787 47.1146H75.2226L74.1125 51.0076H74.0958L72.9312 47.0427H72.2777Z" fill="#0C538E"></path><path d="M79.3781 48.6361H79.3949L80.0986 50.7072H78.7581L79.3781 48.6361ZM79.0179 46.9664L76.8145 52.8207H77.9748L78.4398 51.6203H80.4044L80.8401 52.8207H82.0172L79.8724 46.9664H79.0179Z" fill="#0C538E"></path><path d="M84.5056 49.7436H84.648C85.2554 49.7436 85.6827 49.5619 85.6827 48.8687C85.6827 48.1755 85.2387 48.0275 84.6564 48.0275H84.5056V49.7436ZM87.2242 52.8208H85.888L84.514 50.5214H84.4972V52.8208H83.3955V47.1145H84.8868C86.0052 47.1145 86.776 47.6133 86.776 48.8306C86.776 49.5577 86.3781 50.2847 85.6199 50.4115L87.2159 52.8166L87.2242 52.8208Z" fill="#0C538E"></path><path d="M88.6143 47.1188V52.8209H91.5382V51.8529H89.7159V50.3101H91.4711V49.3379H89.7159V48.0867H91.5382V47.1188H88.6143Z" fill="#0C538E"></path><path d="M97.5997 47.1187H96.498V52.8208H97.5997V47.1187Z" fill="#0C538E"></path><path d="M99.4561 46.9664V52.8207H100.558V48.9446H100.575L103.553 52.9348H104.345V47.1186H103.243V50.9524H103.23L100.252 46.9664H99.4561Z" fill="#0C538E"></path><path d="M109.991 48.6277C109.685 48.2515 109.216 48.0232 108.747 48.0232C107.691 48.0232 107.084 49.0081 107.084 49.9887C107.084 50.9694 107.712 51.9078 108.738 51.9078C109.212 51.9078 109.685 51.6584 109.991 51.3033V52.6263C109.576 52.825 109.166 52.9687 108.709 52.9687C107.121 52.9687 105.944 51.5823 105.944 50.0099C105.944 48.4375 107.075 46.9623 108.734 46.9623C109.178 46.9623 109.614 47.0849 109.995 47.2962V48.6277H109.991Z" fill="#0C538E"></path><g clip-path="url(#clip0_680_963)"><path d="M59.3646 18.5742C59.3646 18.5742 59.3646 18.5913 59.3646 18.6026C59.3646 23.7069 55.4566 27.7925 50.4827 27.7925C50.4827 27.7925 50.3643 27.7925 50.1387 27.8039C45.2044 28.0031 41.302 31.9351 41.2456 37.045L58.6766 37.0735C58.8458 37.0849 59.1954 37.0735 59.3646 37.0735C64.3384 37.0735 68.3705 32.9309 68.3705 27.8267C68.3705 22.7225 64.344 18.5856 59.3702 18.5799M50.0654 18.5173C50.0654 18.5173 50.0654 18.5002 50.0654 18.4888C50.0654 13.3846 53.9734 9.29894 58.9473 9.29894C58.9473 9.29894 59.0657 9.29894 59.2913 9.28756C64.2256 9.0884 68.128 5.15637 68.1844 0.0464492L50.7647 0.0179975C50.5955 0.00661685 50.2459 0.0179975 50.0767 0.0179975C45.1029 0.0179975 41.0708 4.16056 41.0708 9.2648C41.0708 14.369 45.0972 18.5059 50.0711 18.5116M33.142 8.5592C29.9332 3.46634 24.3616 0.0862816 18.0118 0.0862816C8.06415 0.0862816 0 8.36572 0 18.5799C0 28.794 8.06415 37.0735 18.0118 37.0735C24.6718 37.0735 30.4746 33.352 33.5875 27.8381H17.8257V27.8153C12.9365 27.7129 9.00591 23.6215 9.00591 18.5799C9.00591 13.5382 13.038 9.33308 18.0118 9.33308C21.3108 9.33308 24.1868 11.1597 25.7545 13.874H19.1453C14.2222 13.891 10.2296 18.0109 10.1732 23.1094H25.856C25.856 23.1094 25.856 23.1208 25.8504 23.1265H35.4541C35.815 21.6697 36.0236 20.1561 36.0236 18.5856C36.0236 15.3648 35.2172 12.3376 33.8074 9.70295C33.61 9.30463 33.3845 8.92907 33.1363 8.56489" fill="#0C538E"></path><path d="M87.0275 0.0178223H77.8223V37.005H87.0275V0.0178223Z" fill="#0C538E"></path><path d="M99.3222 13.9991H91.2832V37.005H99.3222V13.9991Z" fill="#71C063"></path><path d="M110.479 21.6648H103.578V37.005H110.479V21.6648Z" fill="#C5DC6E"></path></g><defs><clipPath id="clip0_680_963"><rect width="110.53" height="36.9872" fill="white" transform="translate(0 0.0178223)"></rect></clipPath></defs></svg> 